<?xml version="1.0" encoding="UTF-8"?>
<svg id="Layer_1" xmlns="http://www.w3.org/2000/svg" version="1.1" viewBox="0 0 28 28">
  <!-- Generator: Adobe Illustrator 29.0.1, SVG Export Plug-In . SVG Version: 2.1.0 Build 192)  -->
  <defs>
    <style>
      .st0 {
        fill: #f5a9b8;
      }

      .st1 {
        fill: #eafdff;
        stroke: #5bcefa;
        stroke-miterlimit: 5.6;
        stroke-width: 2.1px;
      }
    </style>
  </defs>
  <rect class="st1" x="4.2" y="5.6" width="19.6" height="16.8" rx="2.8" ry="2.8"/>
  <path class="st0" d="M11.3,9.6v7.3c-.4-.3-.8-.4-1.4-.4-1.1,0-2.1.8-2.1,1.7s.9,1.7,2.1,1.7,2.1-.8,2.1-1.7v-6.8l6.5-.8v5.5c-.4-.3-.8-.4-1.4-.4-1.1,0-2.1.8-2.1,1.7s.9,1.7,2.1,1.7,2.1-.8,2.1-1.7v-8.5c0-.5-.5-.9-1-.9l-6.1.6c-.5,0-.8.4-.8.9Z"/>
</svg>