<?xml version="1.0" encoding="UTF-8"?>
<svg id="Layer_1" xmlns="http://www.w3.org/2000/svg" version="1.1" viewBox="0 0 28 28">
  <!-- Generator: Adobe Illustrator 29.0.1, SVG Export Plug-In . SVG Version: 2.1.0 Build 192)  -->
  <defs>
    <style>
      .st0 {
        fill: #f5a9b8;
        stroke-linecap: round;
        stroke-linejoin: round;
        stroke-width: .8px;
      }

      .st0, .st1 {
        stroke: #5bcefa;
      }

      .st1 {
        fill: #f4f4f5;
        stroke-miterlimit: 5.6;
        stroke-width: 2.1px;
      }
    </style>
  </defs>
  <rect class="st1" x="4.2" y="5.6" width="19.6" height="16.8" rx="2.8" ry="2.8"/>
  <path class="st0" d="M12.2,16v-.4c0-.6.1-1.2.3-1.6.2-.4.7-.8,1.4-1.2.6-.3.9-.6,1.1-.8.2-.2.3-.4.3-.7s-.1-.6-.4-.8c-.3-.2-.7-.3-1.1-.3s-.9.1-1.2.3c-.3.2-.5.5-.6.8h-2.5c0-.7.3-1.3.7-1.8s.9-.9,1.5-1.2,1.4-.5,2.2-.5,1.5.1,2.1.4,1.1.7,1.4,1.2c.3.5.5,1.1.5,1.8s-.2,1.1-.5,1.6c-.3.5-.8.9-1.5,1.3-.5.3-.9.6-1,.8-.2.2-.2.5-.2.7v.2h-2.5ZM13.5,16.9c.4,0,.8.2,1.1.5.3.3.5.7.5,1.1s-.2.8-.5,1.1c-.3.3-.7.5-1.1.5s-.8-.2-1.1-.5c-.3-.3-.5-.7-.5-1.1s.2-.8.5-1.1c.3-.3.7-.5,1.1-.5Z"/>
</svg>