<?xml version="1.0" encoding="UTF-8"?>
<svg id="Layer_1" xmlns="http://www.w3.org/2000/svg" version="1.1" viewBox="0 0 28 28">
  <!-- Generator: Adobe Illustrator 29.0.1, SVG Export Plug-In . SVG Version: 2.1.0 Build 192)  -->
  <defs>
    <style>
      .st0 {
        fill: #f5a9b8;
      }

      .st1 {
        fill: #fff;
      }

      .st2 {
        fill: #fffaf7;
        stroke: #f5a9b8;
        stroke-miterlimit: 5.6;
        stroke-width: 2.1px;
      }

      .st3 {
        fill: #ff9393;
      }

      .st4 {
        isolation: isolate;
        opacity: .2;
      }

      .st5 {
        fill: #ff7f7f;
      }

      .st6 {
        fill: #ff7878;
      }
    </style>
  </defs>
  <rect class="st2" x="4.2" y="5.6" width="19.6" height="16.8" rx="2.8" ry="2.8"/>
  <path class="st3" d="M15.3,14.6l-.9-6.6h0c-3.3,0-6,2.7-6,6h0c0,0,6.9.7,6.9.7Z"/>
  <path class="st0" d="M14.4,7.9h0v6l3,1.2,3-1.2h0c0-3.4-2.7-6-6-6Z"/>
  <path class="st5" d="M20.4,14h0c0,3.4-2.7,6-6,6h-.1c-3.3,0-6-2.7-6-6h0c0,0,12.1,0,12.1,0Z"/>
  <path class="st4" d="M14.1,11.2v5.8c0,.3-.2.5-.6.6h-4c-.8-1-1.2-2.3-1.2-3.6h0c0-1.3.3-2.4,1-3.4h4.2c.3,0,.5.2.6.6Z"/>
  <path class="st6" d="M8,10.6h5.5c.3,0,.6.2.6.6v5.5c0,.3-.2.6-.6.6h-5.5c-.3,0-.6-.2-.6-.6v-5.5c0-.3.2-.6.6-.6Z"/>
  <path class="st1" d="M10.8,12.1c.4,0,.7,0,1,.3.2.2.4.5.4.9,0,.2,0,.4-.2.6-.1.2-.3.3-.5.4-.2.1-.5.2-.7.2h-.7v1.3h-.7v-3.7h1.5ZM10.1,13.9h.6c.2,0,.4,0,.5-.2.1-.1.2-.3.2-.5,0-.4-.2-.6-.7-.6h-.6v1.2h0Z"/>
</svg>