<?xml version="1.0" encoding="utf-8" ?><svg xmlns="http://www.w3.org/2000/svg" xmlns:xlink="http://www.w3.org/1999/xlink" width="464" height="563" viewBox="0 0 464 563"><path fill="#5ACEF9" d="M167.914 349.086C159.235 333.965 148.884 317.754 139.684 302.728L86.0875 214.779C84.5611 212.247 83.4886 210.335 81.4998 208.04C77.969 203.966 73.2044 199.901 70.4578 195.297C68.9367 192.747 68.6518 186.443 69.2659 183.643C70.1731 179.506 74.6903 174.452 77.4499 171.009C94.4193 150.004 115.323 132.51 138.99 119.509C184.763 94.8242 238.463 89.3205 288.292 104.207C324.343 115.061 356.552 135.971 381.141 164.484C385.478 169.416 390.855 175.573 394.35 181.15C396.032 183.833 396 189.959 395.099 192.949C393.435 198.469 385.417 204.119 382.392 208.321C377.902 214.559 373.338 222.665 369.189 229.356L314.09 320.155C310.163 326.512 306.48 333.161 302.448 339.499C300.514 342.541 298.896 345.901 296.811 348.907C300.104 349.261 306.562 349.081 310.141 349.078L334.494 349.057C344.985 349.048 354.045 348.127 360.993 357.7C362.624 359.91 363.698 362.481 364.123 365.194C365.141 371.425 364.205 383.657 364.502 390.645C364.588 392.654 364.651 406.606 364.381 408.225C362.842 409.327 345.666 408.957 342.982 408.957L309.061 408.954L162.842 408.958L121.633 408.964C116.324 408.969 104.533 409.304 99.7804 408.64C99.0945 407.541 99.0589 403.488 99.0475 402.049L99.0331 379.992C99.039 370.79 98.0133 362.051 105.103 354.908C112.589 347.367 124.132 349.069 133.896 349.071L167.914 349.086ZM189.245 349.2C196.003 348.957 203.294 349.073 210.092 349.073L244.071 349.077L263.651 349.066C266.643 349.064 271.922 348.919 274.694 349.26C276.25 345.407 278.918 341.239 281.067 337.691C304.305 299.337 328.064 261.237 351.265 222.868C343.894 213.264 333.856 201.278 324.82 193.265C304.638 175.262 277.493 162.049 251.213 158.081C201.5 150.574 154.371 172.746 122.496 210.204C120.914 212.063 113.769 221.478 112.242 222.498C115.288 226.121 116.497 228.816 119.012 232.729C125.193 242.347 130.97 252.439 136.964 262.141L168.302 313.451C174.995 324.307 182.051 335.245 188.384 346.326C188.905 347.238 189.115 348.16 189.245 349.2Z"/><path fill="#5ACEF9" d="M229.005 191.711C233.271 191.401 237.558 191.504 241.804 192.019C271.26 195.308 298.192 210.197 316.642 233.394C319.791 237.423 320.287 241.665 319.816 246.636C319.096 254.421 312.309 259.027 307.141 264.345C302.265 269.362 296.229 276.933 289.37 279.208C286.93 280.016 282.054 279.653 279.608 279.024C274.735 277.771 271.361 273.309 268.099 269.817C261.371 262.584 253.561 256.701 243.832 254.212C241.093 253.511 238.754 253.166 235.937 252.795C224.259 251.799 211.439 256.155 202.661 263.87C195.771 269.899 191.513 278.853 181.57 280.003C171.134 281.21 166.304 273.627 159.737 267.089C155.919 263.288 149.77 257.72 147.128 253.4C143.4 247.308 144.422 236.892 149.666 231.9C164.779 214.268 184.545 200.712 207.146 194.887C214.673 192.947 221.379 192.406 229.005 191.711Z"/><path fill="#F5A9B7" d="M296.811 348.907C300.104 349.261 306.562 349.081 310.141 349.078L334.494 349.057C344.985 349.048 354.045 348.127 360.993 357.7C362.624 359.91 363.698 362.481 364.123 365.194C365.141 371.425 364.205 383.657 364.502 390.645C364.588 392.654 364.651 406.606 364.381 408.225C362.842 409.327 345.666 408.957 342.982 408.957L309.061 408.954L162.842 408.958L121.633 408.964C116.324 408.969 104.533 409.304 99.7804 408.64C99.0945 407.541 99.0589 403.488 99.0475 402.049L99.0331 379.992C99.039 370.79 98.0133 362.051 105.103 354.908C112.589 347.367 124.132 349.069 133.896 349.071L167.914 349.086C169.311 349.485 188.374 349.589 189.245 349.2C196.003 348.957 203.294 349.073 210.092 349.073L244.071 349.077L263.651 349.066C266.643 349.064 271.922 348.919 274.694 349.26C276.667 349.583 295.614 349.559 296.811 348.907Z"/><path fill="#F5A9B7" d="M128.229 563C126.522 561.936 124.497 561.745 123.031 561.102C119.615 559.604 112.952 552.983 112.204 549.256C110.653 541.527 111.237 529.145 111.242 521.243L111.26 483.513L111.253 443.345C111.252 440.315 110.857 423.916 111.805 422.42C115.71 421.8 125.861 422.05 130.133 422.056L164.27 422.069L195.226 422.065C199.201 422.066 208.012 421.846 211.67 422.393C212.619 429.953 211.538 438.844 211.922 446.523C212.198 452.054 210.73 456.868 215.157 461.222C224.52 461.535 233.973 461.263 243.348 461.354C245.053 461.371 246.861 461.396 248.555 461.294C252.575 457.458 251.603 457.77 252.091 452.897C252.497 448.847 251.242 424.337 252.635 422.585C257.252 421.76 267.758 422.061 272.943 422.06L308.639 422.058L337.162 422.064C341.033 422.065 349.106 421.845 352.557 422.377C353.074 429.793 352.736 441.025 352.734 448.675L352.724 497.16L352.737 529.454C352.747 534.997 352.881 541.125 352.54 546.631C352.388 549.08 349.546 554.464 347.849 556.376C345.606 558.904 342.196 560.619 339.026 561.761C337.616 562.269 337.064 562.19 335.644 563L128.229 563Z"/><path fill="#5ACEF9" d="M226.823 0L243.486 0C250.805 1.80951 254.653 1.16791 261.367 1.82047C274.038 3.05206 287.913 5.42972 300.306 8.46063C343.422 19.1305 383.539 39.4908 417.606 67.9939C419.599 69.6542 422.224 71.985 424.183 73.8105C428.749 78.0655 432.287 81.7482 437.459 85.2111C441.051 88.7892 444.714 92.3361 447.608 96.5126C448.678 98.0562 450.606 99.3856 451.595 100.786C454.88 105.44 459.065 109.157 462.106 113.952C463.299 115.833 463.19 117.27 464 119.09L464 125.487C463.83 126.091 463.629 126.688 463.4 127.273C460.459 134.576 442.112 153.247 435.202 156.588C422.693 161.027 417.199 154.097 410.582 145.515C405.229 138.572 396.396 129.701 390.379 124.214C369.177 104.939 344.831 89.4384 318.397 78.3839C288.153 65.8745 252.061 59.1758 219.248 61.5553C217.663 61.6592 215.965 61.3488 214.4 61.4756C212.315 61.6444 210.227 62.1232 208.138 62.2972C203.363 62.6953 198.773 63.6527 194.063 64.4985C152.139 71.7577 112.955 90.2115 80.6557 117.909C76.4827 121.547 72.919 124.903 69.0732 128.859C66.811 131.294 63.6535 133.51 61.4937 135.985C55.6454 142.688 50.1913 150.766 42.933 155.997C39.403 158.541 32.4134 158.114 28.4784 156.419C26.3398 155.501 24.3724 154.227 22.6597 152.651C20.779 150.915 19.341 148.033 17.5961 146.172C12.5435 140.669 4.4824 135.162 1.61201 128.213C-1.14168 121.547 0.955605 115.929 5.16388 110.601C11.6478 102.433 18.5195 94.0718 26.2525 87.0497C30.1994 83.4657 33.7717 79.1511 37.5688 75.7432C68.8156 47.7501 105.541 26.5608 145.414 13.5207C152.959 11.1485 160.613 9.13644 168.349 7.49132C170.785 6.98656 173.014 6.68397 175.452 6.30816C177.632 5.63938 179.345 5.24735 181.585 4.63403C185.991 3.428 191.658 4.05191 195.803 2.79599C198.257 2.0523 200.084 2.94466 201.142 2.62385C207.842 0.594047 214.529 1.29754 221.418 0.493913C223.199 0.28458 225.08 0.57436 226.823 0Z"/></svg>